<svg xmlns="http://www.w3.org/2000/svg" height="50" width="240" viewBox="0 0 240 50"><defs><clipPath id="d"><path d="M0 489.01h489.01V0H0v489.01z"/></clipPath><clipPath id="c"><path d="M0 489.01h489.01V0H0v489.01z"/></clipPath><clipPath id="b"><path d="M0 303.92h303.92V0H0v303.92z"/></clipPath><clipPath id="a"><path d="M0 303.92h303.92V0H0v303.92z"/></clipPath></defs><g clip-path="url(#a)" transform="matrix(.0987 0 0 -.0987 5 40)" fill="#002a50"><path d="M151.96 251.71l122.23-46.488-122.23-52.32-122.24 52.32 122.24 46.488zM4.92 198.215l143.86-61.572c1.016-.443 2.1-.655 3.186-.655s2.165.223 3.184.655l143.86 61.572c3.036 1.303 4.982 4.31 4.913 7.615-.067 3.306-2.136 6.233-5.22 7.403l-143.86 54.716c-1.86.708-3.906.708-5.76 0L5.233 213.236c-3.085-1.17-5.152-4.103-5.224-7.403-.07-3.3 1.88-6.318 4.92-7.616"/><path d="M4.922 163.18l147.04-62.936 147.03 62.936c4.118 1.76 6.023 6.523 4.262 10.634-1.757 4.103-6.502 6.03-10.63 4.26l-140.66-60.21-140.67 60.21c-4.12 1.765-8.876-.152-10.638-4.26-1.76-4.116.152-8.873 4.267-10.634"/><path d="M4.922 130.78l147.04-62.938 147.03 62.938c4.118 1.76 6.023 6.518 4.262 10.63-1.757 4.103-6.502 6.034-10.63 4.262L151.963 85.46l-140.67 60.21c-4.12 1.762-8.876-.152-10.638-4.26-1.76-4.113.152-8.87 4.267-10.63"/><path d="M4.922 98.38l147.04-62.94 147.03 62.94c4.118 1.762 6.023 6.518 4.262 10.63-1.757 4.104-6.502 6.022-10.63 4.263L151.963 53.06l-140.67 60.213c-4.12 1.76-8.876-.154-10.638-4.262-1.76-4.112.152-8.868 4.267-10.63"/></g><g clip-path="url(#b)" transform="matrix(.0987 0 0 -.0987 45 40)" fill="#fff"><path d="M151.96 251.71l122.23-46.488-122.23-52.32-122.24 52.32 122.24 46.488zM4.92 198.215l143.86-61.572c1.016-.443 2.1-.655 3.186-.655s2.165.223 3.184.655l143.86 61.572c3.036 1.303 4.982 4.31 4.913 7.615-.067 3.306-2.136 6.233-5.22 7.403l-143.86 54.716c-1.86.708-3.906.708-5.76 0L5.233 213.236c-3.085-1.17-5.152-4.103-5.224-7.403-.07-3.3 1.88-6.318 4.92-7.616"/><path d="M4.922 163.18l147.04-62.936 147.03 62.936c4.118 1.76 6.023 6.523 4.262 10.634-1.757 4.103-6.502 6.03-10.63 4.26l-140.66-60.21-140.67 60.21c-4.12 1.765-8.876-.152-10.638-4.26-1.76-4.116.152-8.873 4.267-10.634"/><path d="M4.922 130.78l147.04-62.938 147.03 62.938c4.118 1.76 6.023 6.518 4.262 10.63-1.757 4.103-6.502 6.034-10.63 4.262L151.963 85.46l-140.67 60.21c-4.12 1.762-8.876-.152-10.638-4.26-1.76-4.113.152-8.87 4.267-10.63"/><path d="M4.922 98.38l147.04-62.94 147.03 62.94c4.118 1.762 6.023 6.518 4.262 10.63-1.757 4.104-6.502 6.022-10.63 4.263L151.963 53.06l-140.67 60.213c-4.12 1.76-8.876-.154-10.638-4.262-1.76-4.112.152-8.868 4.267-10.63"/></g><g clip-path="url(#c)" transform="matrix(.04926 0 0 -.04908 87.956 37)" fill="#002a50"><path d="M483.97 383.3c-2.49 9.958-14.903 13.424-22.157 6.165L402.9 330.55c-13.083-13.076-34.29-13.076-47.372 0l-27.03 27.032c-13.083 13.08-13.083 34.29 0 47.372l58.196 58.197c7.306 7.308 3.75 19.84-6.306 22.194-13.772 3.218-28.327 4.406-43.34 3.208-64.52-5.148-123.91-65.65-127.92-130.25-1.52-24.503 3.43-47.667 13.078-68.186l-205.95-176.98c-9.262-7.96-14.81-19.4-15.323-31.602-.52-12.2 4.042-24.068 12.6-32.78l34.9-35.54c8.64-8.803 20.57-13.587 32.9-13.19 12.33.398 23.928 5.935 31.986 15.27l178.39 206.68c19.915-8.89 42.208-13.424 65.745-11.956 65.04 4.057 125.56 63.92 130.29 128.91 1.103 15.403-.278 30.312-3.79 44.38"/></g><g clip-path="url(#d)" transform="matrix(.04926 0 0 -.04908 127.96 37)"><path d="M483.97 383.3c-2.49 9.958-14.903 13.424-22.157 6.165L402.9 330.55c-13.083-13.076-34.29-13.076-47.372 0l-27.03 27.032c-13.083 13.08-13.083 34.29 0 47.372l58.196 58.197c7.306 7.308 3.75 19.84-6.306 22.194-13.772 3.218-28.327 4.406-43.34 3.208-64.52-5.148-123.91-65.65-127.92-130.25-1.52-24.503 3.43-47.667 13.078-68.186l-205.95-176.98c-9.262-7.96-14.81-19.4-15.323-31.602-.52-12.2 4.042-24.068 12.6-32.78l34.9-35.54c8.64-8.803 20.57-13.587 32.9-13.19 12.33.398 23.928 5.935 31.986 15.27l178.39 206.68c19.915-8.89 42.208-13.424 65.745-11.956 65.04 4.057 125.56 63.92 130.29 128.91 1.103 15.403-.278 30.312-3.79 44.38" fill="#fff"/></g><g><g fill="#002a50" transform="translate(-380 -142.4)"><rect rx="0" ry="2" height="2" width="17" y="157.36" x="556"/><rect rx="0" ry="0" height="6" width="6" y="155.36" x="547"/><rect rx="0" ry="2" height="2" width="17" y="166.36" x="556"/><rect rx="0" ry="2" height="2" width="17" y="175.36" x="556"/></g><path d="M167.66 22.62l4.676 4.68M172.34 22.62l-4.676 4.68" stroke="#002a50" stroke-width="1.871" fill="none"/><path d="M167 35.96h6l-3-5z" fill-rule="evenodd" fill="#002a50"/></g><g><g fill="#fff" transform="translate(-380 -142.4)"><rect rx="0" ry="2" height="2" width="17" y="157.36" x="596"/><rect rx="0" ry="0" height="6" width="6" y="155.36" x="587"/><rect rx="0" ry="2" height="2" width="17" y="166.36" x="596"/><rect rx="0" ry="2" height="2" width="17" y="175.36" x="596"/></g><path d="M207.66 22.62l4.676 4.68M212.34 22.62l-4.676 4.68" stroke="#fff" stroke-width="1.871" fill="none"/><path d="M207 35.96h6l-3-5z" fill-rule="evenodd" fill="#fff"/></g></svg>